<svg id="Layer_1" data-name="Layer 1" xmlns="http://www.w3.org/2000/svg" viewBox="0 0 638 238.36"><defs><style>.cls-1,.cls-2{fill:#00acd7;}.cls-1{fill-rule:evenodd;}</style></defs><title>Go Logo Vector</title><path class="cls-1" d="M229.15,453c-1.24,0-1.56-.62-.93-1.55l6.52-8.39a4.45,4.45,0,0,1,3.42-1.55H349.05c1.24,0,1.56.93.93,1.86l-5.28,8.08a4.72,4.72,0,0,1-3.1,1.86Z" transform="translate(-181 -380.82)"/><path class="cls-1" d="M182.24,481.57c-1.24,0-1.55-.62-.93-1.55l6.52-8.39a4.48,4.48,0,0,1,3.42-1.55H332.9a1.42,1.42,0,0,1,1.55,1.86L332,479.4a2.72,2.72,0,0,1-2.8,1.86Z" transform="translate(-181 -380.82)"/><path class="cls-1" d="M257.42,510.15c-1.25,0-1.56-.93-.94-1.86l4.35-7.77a4.13,4.13,0,0,1,3.11-1.86h62.13c1.24,0,1.86.93,1.86,2.17l-.62,7.46a2.33,2.33,0,0,1-2.18,2.17Z" transform="translate(-181 -380.82)"/><path class="cls-1" d="M579.85,447.4c-19.57,5-32.93,8.7-52.18,13.67-4.66,1.24-5,1.55-9-3.11-4.66-5.28-8.08-8.7-14.6-11.8-19.57-9.63-38.52-6.84-56.23,4.66-21.12,13.67-32,33.86-31.68,59,.31,24.85,17.39,45.35,41.93,48.77,21.13,2.79,38.83-4.66,52.81-20.5,2.8-3.42,5.28-7.15,8.39-11.5H459.33c-6.53,0-8.08-4-5.91-9.32,4-9.63,11.5-25.78,15.85-33.86a8.38,8.38,0,0,1,7.76-5H590.1c-.62,8.39-.62,16.78-1.86,25.17a132.61,132.61,0,0,1-25.47,60.88C540.4,594,511.2,612.35,474.24,617.32c-30.45,4-58.71-1.87-83.56-20.5-23-17.4-36-40.39-39.45-69-4-33.85,5.9-64.3,26.4-91,22.05-28.89,51.25-47.22,87-53.74,29.2-5.28,57.15-1.86,82.31,15.22,16.47,10.87,28.27,25.78,36,43.8C584.82,444.92,583.58,446.47,579.85,447.4Z" transform="translate(-181 -380.82)"/><path class="cls-2" d="M682.67,619.18c-28.27-.62-54-8.7-75.79-27.33-18.33-15.85-29.82-36-33.55-60-5.59-35.1,4-66.16,25.16-93.81,22.68-29.82,50-45.35,87-51.87,31.68-5.59,61.5-2.49,88.53,15.84,24.54,16.77,39.76,39.45,43.8,69.27,5.28,41.94-6.84,76.1-35.73,105.3-20.5,20.82-45.66,33.86-74.55,39.76C699.13,617.94,690.75,618.25,682.67,619.18ZM756.6,493.69a89.78,89.78,0,0,0-.93-10.26c-5.59-30.75-33.86-48.14-63.37-41.31-28.89,6.52-47.53,24.85-54.36,54.05-5.59,24.23,6.21,48.77,28.58,58.71,17.08,7.46,34.17,6.52,50.63-1.86,24.54-12.74,37.9-32.62,39.45-59.33Z" transform="translate(-181 -380.82)"/></svg>